<svg t="1589612687900" class="icon" viewBox="0 0 1024 1024" version="1.1" xmlns="http://www.w3.org/2000/svg" p-id="4197" width="200" height="200"><path d="M512 56.878545c250.926545 0 455.098182 204.171636 455.098182 455.121455S762.926545 967.121455 512 967.121455 56.901818 762.949818 56.901818 512 261.073455 56.878545 512 56.878545M512 0C229.236364 0 0 229.236364 0 512c0 282.740364 229.236364 512 512 512s512-229.259636 512-512C1024 229.236364 794.763636 0 512 0z" p-id="4198"></path><path d="M804.608 301.451636c0.186182-2.141091-0.116364-4.189091-0.395636-6.306909-0.186182-1.303273 0.093091-2.56-0.256-3.886545-0.116364-0.465455-0.465455-0.768-0.605091-1.233455-0.628364-2.048-1.745455-3.84-2.839273-5.725091-0.884364-1.512727-1.582545-3.095273-2.699636-4.421818-1.186909-1.396364-2.676364-2.420364-4.119273-3.584-1.605818-1.303273-3.118545-2.629818-4.957091-3.560727-0.442182-0.232727-0.698182-0.651636-1.163636-0.861091-1.303273-0.581818-2.653091-0.535273-3.979637-0.930909-1.954909-0.581818-3.84-1.186909-5.888-1.373091a27.345455 27.345455 0 0 0-6.330182 0.395636c-1.303273 0.162909-2.536727-0.093091-3.84 0.232728l-359.656727 96.349091c-0.279273 0.069818-0.465455 0.279273-0.744727 0.372363-2.048 0.605091-3.816727 1.768727-5.678546 2.816-1.559273 0.861091-3.258182 1.466182-4.608 2.56-1.186909 0.977455-2.001455 2.327273-3.025454 3.490909-1.559273 1.745455-3.211636 3.397818-4.305455 5.445818-0.139636 0.232727-0.372364 0.372364-0.488727 0.605091L222.301091 711.214545c-0.674909 1.349818-0.698182 2.792727-1.163636 4.189091-0.698182 2.048-1.489455 4.026182-1.722182 6.213819-0.232727 2.210909 0.139636 4.352 0.418909 6.516363 0.162909 1.419636-0.116364 2.792727 0.279273 4.235637 0.069818 0.302545 0.279273 0.488727 0.372363 0.791272 0.349091 1.186909 1.024 2.210909 1.512727 3.351273 0.977455 2.210909 2.024727 4.352 3.467637 6.213818 0.768 1.000727 1.675636 1.792 2.56 2.699637 1.745455 1.745455 3.607273 3.258182 5.701818 4.491636 0.628364 0.372364 1.000727 0.977455 1.675636 1.326545 0.861091 0.442182 1.745455 0.605091 2.606546 0.954182 0.791273 0.302545 1.536 0.605091 2.350545 0.837818 2.792727 0.837818 5.632 1.419636 8.448 1.419637 2.536727 0 5.12-0.349091 7.703273-1.047273l0.069818-0.023273 0.349091-0.093091 378.251636-101.306181c0.093091-0.023273 0.162909-0.116364 0.279273-0.139637a29.556364 29.556364 0 0 0 9.309091-4.631273c0.768-0.535273 1.419636-1.186909 2.117818-1.792 1.978182-1.722182 3.677091-3.700364 5.189818-5.957818 0.512-0.768 1.070545-1.489455 1.489455-2.327272 0.302545-0.558545 0.721455-0.977455 1.000727-1.536l147.735273-324.25891c0.581818-1.28 0.512-2.606545 0.907636-3.909818 0.605091-2.001455 1.210182-3.886545 1.396364-5.981091zM606.254545 598.109091l-300.776727 80.570182 130.676364-258.048 285.882182-76.590546L606.254545 598.109091z" p-id="4199"></path><path d="M512 512m-34.909091 0a34.909091 34.909091 0 1 0 69.818182 0 34.909091 34.909091 0 1 0-69.818182 0Z" p-id="4200"></path></svg>