<?xml version="1.0" standalone="no"?><!DOCTYPE svg PUBLIC "-//W3C//DTD SVG 1.1//EN" "http://www.w3.org/Graphics/SVG/1.1/DTD/svg11.dtd"><svg t="1589554660451" class="icon" viewBox="0 0 1025 1024" version="1.1" xmlns="http://www.w3.org/2000/svg" p-id="4435" xmlns:xlink="http://www.w3.org/1999/xlink" width="200.1953125" height="200"><defs><style type="text/css"></style></defs><path d="M506.293585 578.717349a289.354455 289.354455 0 1 1 289.303315-289.354456A289.610159 289.610159 0 0 1 506.293585 578.717349z m0-520.357297a231.053982 231.053982 0 1 0 231.002841 231.002841A231.309686 231.309686 0 0 0 506.293585 58.360052z" p-id="4436"></path><path d="M942.524321 1024a29.150237 29.150237 0 0 1-29.150237-29.150237 407.13164 407.13164 0 0 0-813.138182-29.150236H792.681876a29.150237 29.150237 0 0 1 0 58.300473H69.960568a29.150237 29.150237 0 0 1-29.150237-29.150237 465.380972 465.380972 0 0 1 930.761945 0 29.150237 29.150237 0 0 1-29.047955 29.150237z" p-id="4437"></path><path d="M329.857942 291.203961a20.456306 20.456306 0 0 1-20.456306-20.71201 177.5096 177.5096 0 0 1 177.100473-177.305037 20.456306 20.456306 0 0 1 0 41.37288A136.085579 136.085579 0 0 0 350.518812 270.491951a20.456306 20.456306 0 0 1-20.66087 20.71201z" fill="#CDB288" p-id="4438"></path></svg>