<svg t="1589612488878" class="icon" viewBox="0 0 1024 1024" version="1.1" xmlns="http://www.w3.org/2000/svg" p-id="2699" width="200" height="200"><path d="M886.2 0H143.8C135.8 74.6 74.8 135.6 0 143.4v743c74.8 9.8 132 64.8 143.8 137.6h744.4c6-72.8 65-131.6 135.8-139.6V143.4c-72.8-11.8-130-70.6-137.8-143.4z m-74 809.8c-72.6 0-37.6-4-110.2-4-71.6 0-42 4-112.2 4-11.8 0-9.8-16.4 0-19.6 45.6-15.2 45.8-20.4 49.2-25.6 20.8-31.2 11.8-166 11.8-226 0-10.6-12.8-25.6-27.6-25.6H400.8c-14.8 0-27.6 15-27.6 25.6 0 60-9 194.8 11.8 226 3.4 5 3.6 10.4 49.2 25.6 9.8 3.2 12 19.6 0 19.6-70.2 0-40.6-4-112.2-4-72.6 0-37.6 4-110.2 4-15.8 0-11.6-21.6 0-21.6 20.4-6.8 27-7 43.4-27.6 15.4-25.8 15.8-88.8 15.8-255.6V302.6c0-44.4-24.4-56.6-57.2-64.8-17.6-4.4-8-23.6 2-23.6 73 0 41.2 4 114.2 4 65.4 0 33-4 98.4-4 6.6 0 17 16.6 2 21.6-9.8 3.2-55.2 7.4-55.2 78.6 0 91.2-0.4 111.6 2 137.6 0 2.6 4.6 25.6 25.6 25.6h218.4c21 0 25.6-23 25.6-25.6 2.4-26 2-46.4 2-137.6 0-71.2-45.4-75.4-55.2-78.6-15-5-4.6-21.6 2-21.6 65.4 0 33 4 98.4 4 73 0 41.2-4 114.2-4 9.8 0 19.8 19.2 2 23.6-32.8 8.2-57.2 20.6-57.2 64.8v202.4c0 166.8 0.2 229.8 15.8 255.6 16.4 20.4 22.8 20.8 43.4 27.6 11.6 0 15.6 21.6 0 21.6z" p-id="2700" fill="#2c2c2c"></path></svg>